<svg width="89" height="36" viewBox="0 0 89 36" fill="none" xmlns="http://www.w3.org/2000/svg">
<rect width="88.6343" height="35.1619" fill="#C20000"/>
<path d="M37.7163 24.5811V10.0356H40.7916V22.0455H47.0274V24.5811H37.7163ZM52.1392 10.0356V24.5811H49.064V10.0356H52.1392ZM57.2973 10.0356L60.8129 21.0867H60.9478L64.4706 10.0356H67.8797L62.8655 24.5811H58.9024L53.8811 10.0356H57.2973ZM69.6304 24.5811V10.0356H79.4315V12.5711H72.7057V16.037H78.9272V18.5725H72.7057V22.0455H79.4599V24.5811H69.6304Z" fill="white"/>
<path fill-rule="evenodd" clip-rule="evenodd" d="M11.5424 9.72227C11.9928 9.35191 12.6504 9.51411 12.9377 10.0237C13.201 10.4887 13.058 11.0739 12.6571 11.4227C11.7778 12.1833 11.0721 13.1278 10.5887 14.191C10.1053 15.2541 9.85564 16.4107 9.85693 17.5808C9.85591 18.7509 10.1057 19.9074 10.5891 20.9705C11.0725 22.0336 11.778 22.9781 12.6571 23.739C13.058 24.0877 13.201 24.6716 12.9377 25.1379C12.6504 25.6475 11.9928 25.8097 11.5424 25.4394C10.388 24.4895 9.4577 23.2912 8.8193 21.9317C8.1809 20.5722 7.85046 19.0858 7.85206 17.5808C7.85046 16.0758 8.1809 14.5894 8.8193 13.2299C9.4577 11.8704 10.388 10.6721 11.5424 9.72227ZM22.8151 10.0237C22.5518 10.4887 22.6948 11.0739 23.0957 11.4227C23.9751 12.1833 24.6808 13.1278 25.1642 14.1909C25.6476 15.2541 25.8973 16.4106 25.8959 17.5808C25.8973 18.751 25.6476 19.9075 25.1642 20.9707C24.6808 22.0339 23.9751 22.9783 23.0957 23.739C22.6948 24.0877 22.5518 24.6716 22.8151 25.1379C23.1024 25.6475 23.76 25.8097 24.2105 25.4394C25.3648 24.4895 26.2951 23.2912 26.9335 21.9317C27.5719 20.5722 27.9024 19.0858 27.9008 17.5808C27.9024 16.0758 27.5719 14.5894 26.9335 13.2299C26.2951 11.8704 25.3648 10.6721 24.2105 9.72227C23.76 9.35191 23.1024 9.51411 22.8151 10.0237ZM13.5445 13.3609C13.9656 12.9189 14.6633 13.0771 14.964 13.6096C15.2179 14.0557 15.0936 14.6153 14.7715 15.0154C14.1853 15.7388 13.8654 16.6455 13.8667 17.5808C13.8667 18.554 14.2062 19.4475 14.7715 20.1476C15.0936 20.5464 15.2166 21.1046 14.964 21.5533C14.6633 22.0845 13.9656 22.2427 13.5445 21.8007C12.4631 20.6684 11.8596 19.155 11.8618 17.5808C11.8618 15.9413 12.5034 14.4544 13.5459 13.3609H13.5445ZM20.7888 13.6096C20.5349 14.0557 20.6578 14.6153 20.9813 15.0154C21.5467 15.7128 21.8861 16.6076 21.8861 17.5808C21.8861 18.554 21.5467 19.4475 20.9813 20.1476C20.6578 20.5464 20.5362 21.1046 20.7888 21.5533C21.0895 22.0845 21.7872 22.2427 22.2083 21.8007C23.2898 20.6685 23.8933 19.1551 23.891 17.5808C23.891 15.9413 23.2495 14.4544 22.2069 13.3609C21.7872 12.9189 21.0895 13.0771 20.7888 13.6096ZM17.8764 19.6083C18.4081 19.6083 18.9181 19.3947 19.2941 19.0145C19.67 18.6342 19.8813 18.1185 19.8813 17.5808C19.8813 17.0431 19.67 16.5274 19.2941 16.1472C18.9181 15.7669 18.4081 15.5533 17.8764 15.5533C17.3447 15.5533 16.8347 15.7669 16.4587 16.1472C16.0828 16.5274 15.8715 17.0431 15.8715 17.5808C15.8715 18.1185 16.0828 18.6342 16.4587 19.0145C16.8347 19.3947 17.3447 19.6083 17.8764 19.6083Z" fill="white"/>
</svg>
